<?xml version="1.0" encoding="utf-8" standalone="no"?>
<!DOCTYPE svg PUBLIC "-//W3C//DTD SVG 1.1//EN"
  "http://www.w3.org/Graphics/SVG/1.1/DTD/svg11.dtd">
<svg xmlns:xlink="http://www.w3.org/1999/xlink" width="720pt" height="432pt" viewBox="0 0 720 432" xmlns="http://www.w3.org/2000/svg" version="1.1">
 <metadata>
  <rdf:RDF xmlns:dc="http://purl.org/dc/elements/1.1/" xmlns:cc="http://creativecommons.org/ns#" xmlns:rdf="http://www.w3.org/1999/02/22-rdf-syntax-ns#">
   <cc:Work>
    <dc:type rdf:resource="http://purl.org/dc/dcmitype/StillImage"/>
    <dc:date>2026-02-18T10:28:21.990405</dc:date>
    <dc:format>image/svg+xml</dc:format>
    <dc:creator>
     <cc:Agent>
      <dc:title>Matplotlib v3.10.8, https://matplotlib.org/</dc:title>
     </cc:Agent>
    </dc:creator>
   </cc:Work>
  </rdf:RDF>
 </metadata>
 <defs>
  <style type="text/css">*{stroke-linejoin: round; stroke-linecap: butt}</style>
 </defs>
 <g id="figure_1">
  <g id="patch_1">
   <path d="M 0 432 
L 720 432 
L 720 0 
L 0 0 
z
" style="fill: #ffffff"/>
  </g>
  <g id="axes_1">
   <g id="patch_2">
    <path d="M 63.785 390.04 
L 709.2 390.04 
L 709.2 26.16 
L 63.785 26.16 
z
" style="fill: #ffffff"/>
   </g>
   <g id="matplotlib.axis_1">
    <g id="xtick_1">
     <g id="line2d_1">
      <path d="M 138.255962 390.04 
L 138.255962 26.16 
" clip-path="url(#p5e1aef13d3)" style="fill: none; stroke-dasharray: 2.96,1.28; stroke-dashoffset: 0; stroke: #b0b0b0; stroke-opacity: 0.4; stroke-width: 0.8"/>
     </g>
     <g id="line2d_2">
      <defs>
       <path id="m3d5e10ab2a" d="M 0 0 
L 0 3.5 
" style="stroke: #000000; stroke-width: 0.8"/>
      </defs>
      <g>
       <use xlink:href="#m3d5e10ab2a" x="138.255962" y="390.04" style="stroke: #000000; stroke-width: 0.8"/>
      </g>
     </g>
     <g id="text_1">
      <!-- 4 -->
      <g transform="translate(135.074712 404.638438) scale(0.1 -0.1)">
       <defs>
        <path id="DejaVuSans-34" d="M 2419 4116 
L 825 1625 
L 2419 1625 
L 2419 4116 
z
M 2253 4666 
L 3047 4666 
L 3047 1625 
L 3713 1625 
L 3713 1100 
L 3047 1100 
L 3047 0 
L 2419 0 
L 2419 1100 
L 313 1100 
L 313 1709 
L 2253 4666 
z
" transform="scale(0.015625)"/>
       </defs>
       <use xlink:href="#DejaVuSans-34"/>
      </g>
     </g>
    </g>
    <g id="xtick_2">
     <g id="line2d_3">
      <path d="M 228.523794 390.04 
L 228.523794 26.16 
" clip-path="url(#p5e1aef13d3)" style="fill: none; stroke-dasharray: 2.96,1.28; stroke-dashoffset: 0; stroke: #b0b0b0; stroke-opacity: 0.4; stroke-width: 0.8"/>
     </g>
     <g id="line2d_4">
      <g>
       <use xlink:href="#m3d5e10ab2a" x="228.523794" y="390.04" style="stroke: #000000; stroke-width: 0.8"/>
      </g>
     </g>
     <g id="text_2">
      <!-- 6 -->
      <g transform="translate(225.342544 404.638438) scale(0.1 -0.1)">
       <defs>
        <path id="DejaVuSans-36" d="M 2113 2584 
Q 1688 2584 1439 2293 
Q 1191 2003 1191 1497 
Q 1191 994 1439 701 
Q 1688 409 2113 409 
Q 2538 409 2786 701 
Q 3034 994 3034 1497 
Q 3034 2003 2786 2293 
Q 2538 2584 2113 2584 
z
M 3366 4563 
L 3366 3988 
Q 3128 4100 2886 4159 
Q 2644 4219 2406 4219 
Q 1781 4219 1451 3797 
Q 1122 3375 1075 2522 
Q 1259 2794 1537 2939 
Q 1816 3084 2150 3084 
Q 2853 3084 3261 2657 
Q 3669 2231 3669 1497 
Q 3669 778 3244 343 
Q 2819 -91 2113 -91 
Q 1303 -91 875 529 
Q 447 1150 447 2328 
Q 447 3434 972 4092 
Q 1497 4750 2381 4750 
Q 2619 4750 2861 4703 
Q 3103 4656 3366 4563 
z
" transform="scale(0.015625)"/>
       </defs>
       <use xlink:href="#DejaVuSans-36"/>
      </g>
     </g>
    </g>
    <g id="xtick_3">
     <g id="line2d_5">
      <path d="M 318.791626 390.04 
L 318.791626 26.16 
" clip-path="url(#p5e1aef13d3)" style="fill: none; stroke-dasharray: 2.96,1.28; stroke-dashoffset: 0; stroke: #b0b0b0; stroke-opacity: 0.4; stroke-width: 0.8"/>
     </g>
     <g id="line2d_6">
      <g>
       <use xlink:href="#m3d5e10ab2a" x="318.791626" y="390.04" style="stroke: #000000; stroke-width: 0.8"/>
      </g>
     </g>
     <g id="text_3">
      <!-- 8 -->
      <g transform="translate(315.610376 404.638438) scale(0.1 -0.1)">
       <defs>
        <path id="DejaVuSans-38" d="M 2034 2216 
Q 1584 2216 1326 1975 
Q 1069 1734 1069 1313 
Q 1069 891 1326 650 
Q 1584 409 2034 409 
Q 2484 409 2743 651 
Q 3003 894 3003 1313 
Q 3003 1734 2745 1975 
Q 2488 2216 2034 2216 
z
M 1403 2484 
Q 997 2584 770 2862 
Q 544 3141 544 3541 
Q 544 4100 942 4425 
Q 1341 4750 2034 4750 
Q 2731 4750 3128 4425 
Q 3525 4100 3525 3541 
Q 3525 3141 3298 2862 
Q 3072 2584 2669 2484 
Q 3125 2378 3379 2068 
Q 3634 1759 3634 1313 
Q 3634 634 3220 271 
Q 2806 -91 2034 -91 
Q 1263 -91 848 271 
Q 434 634 434 1313 
Q 434 1759 690 2068 
Q 947 2378 1403 2484 
z
M 1172 3481 
Q 1172 3119 1398 2916 
Q 1625 2713 2034 2713 
Q 2441 2713 2670 2916 
Q 2900 3119 2900 3481 
Q 2900 3844 2670 4047 
Q 2441 4250 2034 4250 
Q 1625 4250 1398 4047 
Q 1172 3844 1172 3481 
z
" transform="scale(0.015625)"/>
       </defs>
       <use xlink:href="#DejaVuSans-38"/>
      </g>
     </g>
    </g>
    <g id="xtick_4">
     <g id="line2d_7">
      <path d="M 409.059458 390.04 
L 409.059458 26.16 
" clip-path="url(#p5e1aef13d3)" style="fill: none; stroke-dasharray: 2.96,1.28; stroke-dashoffset: 0; stroke: #b0b0b0; stroke-opacity: 0.4; stroke-width: 0.8"/>
     </g>
     <g id="line2d_8">
      <g>
       <use xlink:href="#m3d5e10ab2a" x="409.059458" y="390.04" style="stroke: #000000; stroke-width: 0.8"/>
      </g>
     </g>
     <g id="text_4">
      <!-- 10 -->
      <g transform="translate(402.696958 404.638438) scale(0.1 -0.1)">
       <defs>
        <path id="DejaVuSans-31" d="M 794 531 
L 1825 531 
L 1825 4091 
L 703 3866 
L 703 4441 
L 1819 4666 
L 2450 4666 
L 2450 531 
L 3481 531 
L 3481 0 
L 794 0 
L 794 531 
z
" transform="scale(0.015625)"/>
        <path id="DejaVuSans-30" d="M 2034 4250 
Q 1547 4250 1301 3770 
Q 1056 3291 1056 2328 
Q 1056 1369 1301 889 
Q 1547 409 2034 409 
Q 2525 409 2770 889 
Q 3016 1369 3016 2328 
Q 3016 3291 2770 3770 
Q 2525 4250 2034 4250 
z
M 2034 4750 
Q 2819 4750 3233 4129 
Q 3647 3509 3647 2328 
Q 3647 1150 3233 529 
Q 2819 -91 2034 -91 
Q 1250 -91 836 529 
Q 422 1150 422 2328 
Q 422 3509 836 4129 
Q 1250 4750 2034 4750 
z
" transform="scale(0.015625)"/>
       </defs>
       <use xlink:href="#DejaVuSans-31"/>
       <use xlink:href="#DejaVuSans-30" transform="translate(63.623047 0)"/>
      </g>
     </g>
    </g>
    <g id="xtick_5">
     <g id="line2d_9">
      <path d="M 499.32729 390.04 
L 499.32729 26.16 
" clip-path="url(#p5e1aef13d3)" style="fill: none; stroke-dasharray: 2.96,1.28; stroke-dashoffset: 0; stroke: #b0b0b0; stroke-opacity: 0.4; stroke-width: 0.8"/>
     </g>
     <g id="line2d_10">
      <g>
       <use xlink:href="#m3d5e10ab2a" x="499.32729" y="390.04" style="stroke: #000000; stroke-width: 0.8"/>
      </g>
     </g>
     <g id="text_5">
      <!-- 12 -->
      <g transform="translate(492.96479 404.638438) scale(0.1 -0.1)">
       <defs>
        <path id="DejaVuSans-32" d="M 1228 531 
L 3431 531 
L 3431 0 
L 469 0 
L 469 531 
Q 828 903 1448 1529 
Q 2069 2156 2228 2338 
Q 2531 2678 2651 2914 
Q 2772 3150 2772 3378 
Q 2772 3750 2511 3984 
Q 2250 4219 1831 4219 
Q 1534 4219 1204 4116 
Q 875 4013 500 3803 
L 500 4441 
Q 881 4594 1212 4672 
Q 1544 4750 1819 4750 
Q 2544 4750 2975 4387 
Q 3406 4025 3406 3419 
Q 3406 3131 3298 2873 
Q 3191 2616 2906 2266 
Q 2828 2175 2409 1742 
Q 1991 1309 1228 531 
z
" transform="scale(0.015625)"/>
       </defs>
       <use xlink:href="#DejaVuSans-31"/>
       <use xlink:href="#DejaVuSans-32" transform="translate(63.623047 0)"/>
      </g>
     </g>
    </g>
    <g id="xtick_6">
     <g id="line2d_11">
      <path d="M 589.595122 390.04 
L 589.595122 26.16 
" clip-path="url(#p5e1aef13d3)" style="fill: none; stroke-dasharray: 2.96,1.28; stroke-dashoffset: 0; stroke: #b0b0b0; stroke-opacity: 0.4; stroke-width: 0.8"/>
     </g>
     <g id="line2d_12">
      <g>
       <use xlink:href="#m3d5e10ab2a" x="589.595122" y="390.04" style="stroke: #000000; stroke-width: 0.8"/>
      </g>
     </g>
     <g id="text_6">
      <!-- 14 -->
      <g transform="translate(583.232622 404.638438) scale(0.1 -0.1)">
       <use xlink:href="#DejaVuSans-31"/>
       <use xlink:href="#DejaVuSans-34" transform="translate(63.623047 0)"/>
      </g>
     </g>
    </g>
    <g id="xtick_7">
     <g id="line2d_13">
      <path d="M 679.862955 390.04 
L 679.862955 26.16 
" clip-path="url(#p5e1aef13d3)" style="fill: none; stroke-dasharray: 2.96,1.28; stroke-dashoffset: 0; stroke: #b0b0b0; stroke-opacity: 0.4; stroke-width: 0.8"/>
     </g>
     <g id="line2d_14">
      <g>
       <use xlink:href="#m3d5e10ab2a" x="679.862955" y="390.04" style="stroke: #000000; stroke-width: 0.8"/>
      </g>
     </g>
     <g id="text_7">
      <!-- 16 -->
      <g transform="translate(673.500455 404.638438) scale(0.1 -0.1)">
       <use xlink:href="#DejaVuSans-31"/>
       <use xlink:href="#DejaVuSans-36" transform="translate(63.623047 0)"/>
      </g>
     </g>
    </g>
    <g id="text_8">
     <!-- Input size (log2 bytes) -->
     <g transform="translate(330.603438 418.316562) scale(0.1 -0.1)">
      <defs>
       <path id="DejaVuSans-49" d="M 628 4666 
L 1259 4666 
L 1259 0 
L 628 0 
L 628 4666 
z
" transform="scale(0.015625)"/>
       <path id="DejaVuSans-6e" d="M 3513 2113 
L 3513 0 
L 2938 0 
L 2938 2094 
Q 2938 2591 2744 2837 
Q 2550 3084 2163 3084 
Q 1697 3084 1428 2787 
Q 1159 2491 1159 1978 
L 1159 0 
L 581 0 
L 581 3500 
L 1159 3500 
L 1159 2956 
Q 1366 3272 1645 3428 
Q 1925 3584 2291 3584 
Q 2894 3584 3203 3211 
Q 3513 2838 3513 2113 
z
" transform="scale(0.015625)"/>
       <path id="DejaVuSans-70" d="M 1159 525 
L 1159 -1331 
L 581 -1331 
L 581 3500 
L 1159 3500 
L 1159 2969 
Q 1341 3281 1617 3432 
Q 1894 3584 2278 3584 
Q 2916 3584 3314 3078 
Q 3713 2572 3713 1747 
Q 3713 922 3314 415 
Q 2916 -91 2278 -91 
Q 1894 -91 1617 61 
Q 1341 213 1159 525 
z
M 3116 1747 
Q 3116 2381 2855 2742 
Q 2594 3103 2138 3103 
Q 1681 3103 1420 2742 
Q 1159 2381 1159 1747 
Q 1159 1113 1420 752 
Q 1681 391 2138 391 
Q 2594 391 2855 752 
Q 3116 1113 3116 1747 
z
" transform="scale(0.015625)"/>
       <path id="DejaVuSans-75" d="M 544 1381 
L 544 3500 
L 1119 3500 
L 1119 1403 
Q 1119 906 1312 657 
Q 1506 409 1894 409 
Q 2359 409 2629 706 
Q 2900 1003 2900 1516 
L 2900 3500 
L 3475 3500 
L 3475 0 
L 2900 0 
L 2900 538 
Q 2691 219 2414 64 
Q 2138 -91 1772 -91 
Q 1169 -91 856 284 
Q 544 659 544 1381 
z
M 1991 3584 
L 1991 3584 
z
" transform="scale(0.015625)"/>
       <path id="DejaVuSans-74" d="M 1172 4494 
L 1172 3500 
L 2356 3500 
L 2356 3053 
L 1172 3053 
L 1172 1153 
Q 1172 725 1289 603 
Q 1406 481 1766 481 
L 2356 481 
L 2356 0 
L 1766 0 
Q 1100 0 847 248 
Q 594 497 594 1153 
L 594 3053 
L 172 3053 
L 172 3500 
L 594 3500 
L 594 4494 
L 1172 4494 
z
" transform="scale(0.015625)"/>
       <path id="DejaVuSans-20" transform="scale(0.015625)"/>
       <path id="DejaVuSans-73" d="M 2834 3397 
L 2834 2853 
Q 2591 2978 2328 3040 
Q 2066 3103 1784 3103 
Q 1356 3103 1142 2972 
Q 928 2841 928 2578 
Q 928 2378 1081 2264 
Q 1234 2150 1697 2047 
L 1894 2003 
Q 2506 1872 2764 1633 
Q 3022 1394 3022 966 
Q 3022 478 2636 193 
Q 2250 -91 1575 -91 
Q 1294 -91 989 -36 
Q 684 19 347 128 
L 347 722 
Q 666 556 975 473 
Q 1284 391 1588 391 
Q 1994 391 2212 530 
Q 2431 669 2431 922 
Q 2431 1156 2273 1281 
Q 2116 1406 1581 1522 
L 1381 1569 
Q 847 1681 609 1914 
Q 372 2147 372 2553 
Q 372 3047 722 3315 
Q 1072 3584 1716 3584 
Q 2034 3584 2315 3537 
Q 2597 3491 2834 3397 
z
" transform="scale(0.015625)"/>
       <path id="DejaVuSans-69" d="M 603 3500 
L 1178 3500 
L 1178 0 
L 603 0 
L 603 3500 
z
M 603 4863 
L 1178 4863 
L 1178 4134 
L 603 4134 
L 603 4863 
z
" transform="scale(0.015625)"/>
       <path id="DejaVuSans-7a" d="M 353 3500 
L 3084 3500 
L 3084 2975 
L 922 459 
L 3084 459 
L 3084 0 
L 275 0 
L 275 525 
L 2438 3041 
L 353 3041 
L 353 3500 
z
" transform="scale(0.015625)"/>
       <path id="DejaVuSans-65" d="M 3597 1894 
L 3597 1613 
L 953 1613 
Q 991 1019 1311 708 
Q 1631 397 2203 397 
Q 2534 397 2845 478 
Q 3156 559 3463 722 
L 3463 178 
Q 3153 47 2828 -22 
Q 2503 -91 2169 -91 
Q 1331 -91 842 396 
Q 353 884 353 1716 
Q 353 2575 817 3079 
Q 1281 3584 2069 3584 
Q 2775 3584 3186 3129 
Q 3597 2675 3597 1894 
z
M 3022 2063 
Q 3016 2534 2758 2815 
Q 2500 3097 2075 3097 
Q 1594 3097 1305 2825 
Q 1016 2553 972 2059 
L 3022 2063 
z
" transform="scale(0.015625)"/>
       <path id="DejaVuSans-28" d="M 1984 4856 
Q 1566 4138 1362 3434 
Q 1159 2731 1159 2009 
Q 1159 1288 1364 580 
Q 1569 -128 1984 -844 
L 1484 -844 
Q 1016 -109 783 600 
Q 550 1309 550 2009 
Q 550 2706 781 3412 
Q 1013 4119 1484 4856 
L 1984 4856 
z
" transform="scale(0.015625)"/>
       <path id="DejaVuSans-6c" d="M 603 4863 
L 1178 4863 
L 1178 0 
L 603 0 
L 603 4863 
z
" transform="scale(0.015625)"/>
       <path id="DejaVuSans-6f" d="M 1959 3097 
Q 1497 3097 1228 2736 
Q 959 2375 959 1747 
Q 959 1119 1226 758 
Q 1494 397 1959 397 
Q 2419 397 2687 759 
Q 2956 1122 2956 1747 
Q 2956 2369 2687 2733 
Q 2419 3097 1959 3097 
z
M 1959 3584 
Q 2709 3584 3137 3096 
Q 3566 2609 3566 1747 
Q 3566 888 3137 398 
Q 2709 -91 1959 -91 
Q 1206 -91 779 398 
Q 353 888 353 1747 
Q 353 2609 779 3096 
Q 1206 3584 1959 3584 
z
" transform="scale(0.015625)"/>
       <path id="DejaVuSans-67" d="M 2906 1791 
Q 2906 2416 2648 2759 
Q 2391 3103 1925 3103 
Q 1463 3103 1205 2759 
Q 947 2416 947 1791 
Q 947 1169 1205 825 
Q 1463 481 1925 481 
Q 2391 481 2648 825 
Q 2906 1169 2906 1791 
z
M 3481 434 
Q 3481 -459 3084 -895 
Q 2688 -1331 1869 -1331 
Q 1566 -1331 1297 -1286 
Q 1028 -1241 775 -1147 
L 775 -588 
Q 1028 -725 1275 -790 
Q 1522 -856 1778 -856 
Q 2344 -856 2625 -561 
Q 2906 -266 2906 331 
L 2906 616 
Q 2728 306 2450 153 
Q 2172 0 1784 0 
Q 1141 0 747 490 
Q 353 981 353 1791 
Q 353 2603 747 3093 
Q 1141 3584 1784 3584 
Q 2172 3584 2450 3431 
Q 2728 3278 2906 2969 
L 2906 3500 
L 3481 3500 
L 3481 434 
z
" transform="scale(0.015625)"/>
       <path id="DejaVuSans-62" d="M 3116 1747 
Q 3116 2381 2855 2742 
Q 2594 3103 2138 3103 
Q 1681 3103 1420 2742 
Q 1159 2381 1159 1747 
Q 1159 1113 1420 752 
Q 1681 391 2138 391 
Q 2594 391 2855 752 
Q 3116 1113 3116 1747 
z
M 1159 2969 
Q 1341 3281 1617 3432 
Q 1894 3584 2278 3584 
Q 2916 3584 3314 3078 
Q 3713 2572 3713 1747 
Q 3713 922 3314 415 
Q 2916 -91 2278 -91 
Q 1894 -91 1617 61 
Q 1341 213 1159 525 
L 1159 0 
L 581 0 
L 581 4863 
L 1159 4863 
L 1159 2969 
z
" transform="scale(0.015625)"/>
       <path id="DejaVuSans-79" d="M 2059 -325 
Q 1816 -950 1584 -1140 
Q 1353 -1331 966 -1331 
L 506 -1331 
L 506 -850 
L 844 -850 
Q 1081 -850 1212 -737 
Q 1344 -625 1503 -206 
L 1606 56 
L 191 3500 
L 800 3500 
L 1894 763 
L 2988 3500 
L 3597 3500 
L 2059 -325 
z
" transform="scale(0.015625)"/>
       <path id="DejaVuSans-29" d="M 513 4856 
L 1013 4856 
Q 1481 4119 1714 3412 
Q 1947 2706 1947 2009 
Q 1947 1309 1714 600 
Q 1481 -109 1013 -844 
L 513 -844 
Q 928 -128 1133 580 
Q 1338 1288 1338 2009 
Q 1338 2731 1133 3434 
Q 928 4138 513 4856 
z
" transform="scale(0.015625)"/>
      </defs>
      <use xlink:href="#DejaVuSans-49"/>
      <use xlink:href="#DejaVuSans-6e" transform="translate(29.492188 0)"/>
      <use xlink:href="#DejaVuSans-70" transform="translate(92.871094 0)"/>
      <use xlink:href="#DejaVuSans-75" transform="translate(156.347656 0)"/>
      <use xlink:href="#DejaVuSans-74" transform="translate(219.726562 0)"/>
      <use xlink:href="#DejaVuSans-20" transform="translate(258.935547 0)"/>
      <use xlink:href="#DejaVuSans-73" transform="translate(290.722656 0)"/>
      <use xlink:href="#DejaVuSans-69" transform="translate(342.822266 0)"/>
      <use xlink:href="#DejaVuSans-7a" transform="translate(370.605469 0)"/>
      <use xlink:href="#DejaVuSans-65" transform="translate(423.095703 0)"/>
      <use xlink:href="#DejaVuSans-20" transform="translate(484.619141 0)"/>
      <use xlink:href="#DejaVuSans-28" transform="translate(516.40625 0)"/>
      <use xlink:href="#DejaVuSans-6c" transform="translate(555.419922 0)"/>
      <use xlink:href="#DejaVuSans-6f" transform="translate(583.203125 0)"/>
      <use xlink:href="#DejaVuSans-67" transform="translate(644.384766 0)"/>
      <use xlink:href="#DejaVuSans-32" transform="translate(707.861328 0)"/>
      <use xlink:href="#DejaVuSans-20" transform="translate(771.484375 0)"/>
      <use xlink:href="#DejaVuSans-62" transform="translate(803.271484 0)"/>
      <use xlink:href="#DejaVuSans-79" transform="translate(866.748047 0)"/>
      <use xlink:href="#DejaVuSans-74" transform="translate(925.927734 0)"/>
      <use xlink:href="#DejaVuSans-65" transform="translate(965.136719 0)"/>
      <use xlink:href="#DejaVuSans-73" transform="translate(1026.660156 0)"/>
      <use xlink:href="#DejaVuSans-29" transform="translate(1078.759766 0)"/>
     </g>
    </g>
   </g>
   <g id="matplotlib.axis_2">
    <g id="ytick_1">
     <g id="line2d_15">
      <path d="M 63.785 373.887718 
L 709.2 373.887718 
" clip-path="url(#p5e1aef13d3)" style="fill: none; stroke-dasharray: 2.96,1.28; stroke-dashoffset: 0; stroke: #b0b0b0; stroke-opacity: 0.4; stroke-width: 0.8"/>
     </g>
     <g id="line2d_16">
      <defs>
       <path id="mb371117d25" d="M 0 0 
L -3.5 0 
" style="stroke: #000000; stroke-width: 0.8"/>
      </defs>
      <g>
       <use xlink:href="#mb371117d25" x="63.785" y="373.887718" style="stroke: #000000; stroke-width: 0.8"/>
      </g>
     </g>
     <g id="text_9">
      <!-- 0 -->
      <g transform="translate(50.4225 377.686937) scale(0.1 -0.1)">
       <use xlink:href="#DejaVuSans-30"/>
      </g>
     </g>
    </g>
    <g id="ytick_2">
     <g id="line2d_17">
      <path d="M 63.785 300.254446 
L 709.2 300.254446 
" clip-path="url(#p5e1aef13d3)" style="fill: none; stroke-dasharray: 2.96,1.28; stroke-dashoffset: 0; stroke: #b0b0b0; stroke-opacity: 0.4; stroke-width: 0.8"/>
     </g>
     <g id="line2d_18">
      <g>
       <use xlink:href="#mb371117d25" x="63.785" y="300.254446" style="stroke: #000000; stroke-width: 0.8"/>
      </g>
     </g>
     <g id="text_10">
      <!-- 20000 -->
      <g transform="translate(24.9725 304.053665) scale(0.1 -0.1)">
       <use xlink:href="#DejaVuSans-32"/>
       <use xlink:href="#DejaVuSans-30" transform="translate(63.623047 0)"/>
       <use xlink:href="#DejaVuSans-30" transform="translate(127.246094 0)"/>
       <use xlink:href="#DejaVuSans-30" transform="translate(190.869141 0)"/>
       <use xlink:href="#DejaVuSans-30" transform="translate(254.492188 0)"/>
      </g>
     </g>
    </g>
    <g id="ytick_3">
     <g id="line2d_19">
      <path d="M 63.785 226.621174 
L 709.2 226.621174 
" clip-path="url(#p5e1aef13d3)" style="fill: none; stroke-dasharray: 2.96,1.28; stroke-dashoffset: 0; stroke: #b0b0b0; stroke-opacity: 0.4; stroke-width: 0.8"/>
     </g>
     <g id="line2d_20">
      <g>
       <use xlink:href="#mb371117d25" x="63.785" y="226.621174" style="stroke: #000000; stroke-width: 0.8"/>
      </g>
     </g>
     <g id="text_11">
      <!-- 40000 -->
      <g transform="translate(24.9725 230.420392) scale(0.1 -0.1)">
       <use xlink:href="#DejaVuSans-34"/>
       <use xlink:href="#DejaVuSans-30" transform="translate(63.623047 0)"/>
       <use xlink:href="#DejaVuSans-30" transform="translate(127.246094 0)"/>
       <use xlink:href="#DejaVuSans-30" transform="translate(190.869141 0)"/>
       <use xlink:href="#DejaVuSans-30" transform="translate(254.492188 0)"/>
      </g>
     </g>
    </g>
    <g id="ytick_4">
     <g id="line2d_21">
      <path d="M 63.785 152.987901 
L 709.2 152.987901 
" clip-path="url(#p5e1aef13d3)" style="fill: none; stroke-dasharray: 2.96,1.28; stroke-dashoffset: 0; stroke: #b0b0b0; stroke-opacity: 0.4; stroke-width: 0.8"/>
     </g>
     <g id="line2d_22">
      <g>
       <use xlink:href="#mb371117d25" x="63.785" y="152.987901" style="stroke: #000000; stroke-width: 0.8"/>
      </g>
     </g>
     <g id="text_12">
      <!-- 60000 -->
      <g transform="translate(24.9725 156.78712) scale(0.1 -0.1)">
       <use xlink:href="#DejaVuSans-36"/>
       <use xlink:href="#DejaVuSans-30" transform="translate(63.623047 0)"/>
       <use xlink:href="#DejaVuSans-30" transform="translate(127.246094 0)"/>
       <use xlink:href="#DejaVuSans-30" transform="translate(190.869141 0)"/>
       <use xlink:href="#DejaVuSans-30" transform="translate(254.492188 0)"/>
      </g>
     </g>
    </g>
    <g id="ytick_5">
     <g id="line2d_23">
      <path d="M 63.785 79.354629 
L 709.2 79.354629 
" clip-path="url(#p5e1aef13d3)" style="fill: none; stroke-dasharray: 2.96,1.28; stroke-dashoffset: 0; stroke: #b0b0b0; stroke-opacity: 0.4; stroke-width: 0.8"/>
     </g>
     <g id="line2d_24">
      <g>
       <use xlink:href="#mb371117d25" x="63.785" y="79.354629" style="stroke: #000000; stroke-width: 0.8"/>
      </g>
     </g>
     <g id="text_13">
      <!-- 80000 -->
      <g transform="translate(24.9725 83.153848) scale(0.1 -0.1)">
       <use xlink:href="#DejaVuSans-38"/>
       <use xlink:href="#DejaVuSans-30" transform="translate(63.623047 0)"/>
       <use xlink:href="#DejaVuSans-30" transform="translate(127.246094 0)"/>
       <use xlink:href="#DejaVuSans-30" transform="translate(190.869141 0)"/>
       <use xlink:href="#DejaVuSans-30" transform="translate(254.492188 0)"/>
      </g>
     </g>
    </g>
    <g id="text_14">
     <!-- Throughput (MB/s) -->
     <g transform="translate(18.892812 254.664062) rotate(-90) scale(0.1 -0.1)">
      <defs>
       <path id="DejaVuSans-54" d="M -19 4666 
L 3928 4666 
L 3928 4134 
L 2272 4134 
L 2272 0 
L 1638 0 
L 1638 4134 
L -19 4134 
L -19 4666 
z
" transform="scale(0.015625)"/>
       <path id="DejaVuSans-68" d="M 3513 2113 
L 3513 0 
L 2938 0 
L 2938 2094 
Q 2938 2591 2744 2837 
Q 2550 3084 2163 3084 
Q 1697 3084 1428 2787 
Q 1159 2491 1159 1978 
L 1159 0 
L 581 0 
L 581 4863 
L 1159 4863 
L 1159 2956 
Q 1366 3272 1645 3428 
Q 1925 3584 2291 3584 
Q 2894 3584 3203 3211 
Q 3513 2838 3513 2113 
z
" transform="scale(0.015625)"/>
       <path id="DejaVuSans-72" d="M 2631 2963 
Q 2534 3019 2420 3045 
Q 2306 3072 2169 3072 
Q 1681 3072 1420 2755 
Q 1159 2438 1159 1844 
L 1159 0 
L 581 0 
L 581 3500 
L 1159 3500 
L 1159 2956 
Q 1341 3275 1631 3429 
Q 1922 3584 2338 3584 
Q 2397 3584 2469 3576 
Q 2541 3569 2628 3553 
L 2631 2963 
z
" transform="scale(0.015625)"/>
       <path id="DejaVuSans-4d" d="M 628 4666 
L 1569 4666 
L 2759 1491 
L 3956 4666 
L 4897 4666 
L 4897 0 
L 4281 0 
L 4281 4097 
L 3078 897 
L 2444 897 
L 1241 4097 
L 1241 0 
L 628 0 
L 628 4666 
z
" transform="scale(0.015625)"/>
       <path id="DejaVuSans-42" d="M 1259 2228 
L 1259 519 
L 2272 519 
Q 2781 519 3026 730 
Q 3272 941 3272 1375 
Q 3272 1813 3026 2020 
Q 2781 2228 2272 2228 
L 1259 2228 
z
M 1259 4147 
L 1259 2741 
L 2194 2741 
Q 2656 2741 2882 2914 
Q 3109 3088 3109 3444 
Q 3109 3797 2882 3972 
Q 2656 4147 2194 4147 
L 1259 4147 
z
M 628 4666 
L 2241 4666 
Q 2963 4666 3353 4366 
Q 3744 4066 3744 3513 
Q 3744 3084 3544 2831 
Q 3344 2578 2956 2516 
Q 3422 2416 3680 2098 
Q 3938 1781 3938 1306 
Q 3938 681 3513 340 
Q 3088 0 2303 0 
L 628 0 
L 628 4666 
z
" transform="scale(0.015625)"/>
       <path id="DejaVuSans-2f" d="M 1625 4666 
L 2156 4666 
L 531 -594 
L 0 -594 
L 1625 4666 
z
" transform="scale(0.015625)"/>
      </defs>
      <use xlink:href="#DejaVuSans-54"/>
      <use xlink:href="#DejaVuSans-68" transform="translate(61.083984 0)"/>
      <use xlink:href="#DejaVuSans-72" transform="translate(124.462891 0)"/>
      <use xlink:href="#DejaVuSans-6f" transform="translate(163.326172 0)"/>
      <use xlink:href="#DejaVuSans-75" transform="translate(224.507812 0)"/>
      <use xlink:href="#DejaVuSans-67" transform="translate(287.886719 0)"/>
      <use xlink:href="#DejaVuSans-68" transform="translate(351.363281 0)"/>
      <use xlink:href="#DejaVuSans-70" transform="translate(414.742188 0)"/>
      <use xlink:href="#DejaVuSans-75" transform="translate(478.21875 0)"/>
      <use xlink:href="#DejaVuSans-74" transform="translate(541.597656 0)"/>
      <use xlink:href="#DejaVuSans-20" transform="translate(580.806641 0)"/>
      <use xlink:href="#DejaVuSans-28" transform="translate(612.59375 0)"/>
      <use xlink:href="#DejaVuSans-4d" transform="translate(651.607422 0)"/>
      <use xlink:href="#DejaVuSans-42" transform="translate(737.886719 0)"/>
      <use xlink:href="#DejaVuSans-2f" transform="translate(806.490234 0)"/>
      <use xlink:href="#DejaVuSans-73" transform="translate(840.181641 0)"/>
      <use xlink:href="#DejaVuSans-29" transform="translate(892.28125 0)"/>
     </g>
    </g>
   </g>
   <g id="line2d_25">
    <path d="M 93.122045 356.867666 
L 138.255962 338.271105 
L 183.389878 320.451068 
L 228.523794 307.415134 
L 318.791626 300.037998 
L 409.059458 305.457019 
L 499.32729 315.839439 
L 589.595122 317.534068 
L 679.862955 318.093204 
" clip-path="url(#p5e1aef13d3)" style="fill: none; stroke: #1f77b4; stroke-width: 1.5; stroke-linecap: square"/>
    <defs>
     <path id="mbcb56c176d" d="M 0 2 
C 0.530406 2 1.03916 1.789267 1.414214 1.414214 
C 1.789267 1.03916 2 0.530406 2 0 
C 2 -0.530406 1.789267 -1.03916 1.414214 -1.414214 
C 1.03916 -1.789267 0.530406 -2 0 -2 
C -0.530406 -2 -1.03916 -1.789267 -1.414214 -1.414214 
C -1.789267 -1.03916 -2 -0.530406 -2 0 
C -2 0.530406 -1.789267 1.03916 -1.414214 1.414214 
C -1.03916 1.789267 -0.530406 2 0 2 
z
" style="stroke: #1f77b4"/>
    </defs>
    <g clip-path="url(#p5e1aef13d3)">
     <use xlink:href="#mbcb56c176d" x="93.122045" y="356.867666" style="fill: #1f77b4; stroke: #1f77b4"/>
     <use xlink:href="#mbcb56c176d" x="138.255962" y="338.271105" style="fill: #1f77b4; stroke: #1f77b4"/>
     <use xlink:href="#mbcb56c176d" x="183.389878" y="320.451068" style="fill: #1f77b4; stroke: #1f77b4"/>
     <use xlink:href="#mbcb56c176d" x="228.523794" y="307.415134" style="fill: #1f77b4; stroke: #1f77b4"/>
     <use xlink:href="#mbcb56c176d" x="318.791626" y="300.037998" style="fill: #1f77b4; stroke: #1f77b4"/>
     <use xlink:href="#mbcb56c176d" x="409.059458" y="305.457019" style="fill: #1f77b4; stroke: #1f77b4"/>
     <use xlink:href="#mbcb56c176d" x="499.32729" y="315.839439" style="fill: #1f77b4; stroke: #1f77b4"/>
     <use xlink:href="#mbcb56c176d" x="589.595122" y="317.534068" style="fill: #1f77b4; stroke: #1f77b4"/>
     <use xlink:href="#mbcb56c176d" x="679.862955" y="318.093204" style="fill: #1f77b4; stroke: #1f77b4"/>
    </g>
   </g>
   <g id="line2d_26">
    <path d="M 93.122045 373.499096 
L 138.255962 373.109869 
L 183.389878 372.604568 
L 228.523794 370.800699 
L 318.791626 370.7673 
L 409.059458 370.731522 
L 499.32729 367.399619 
L 589.595122 367.197313 
L 679.862955 367.137594 
" clip-path="url(#p5e1aef13d3)" style="fill: none; stroke: #ff7f0e; stroke-width: 1.5; stroke-linecap: square"/>
    <defs>
     <path id="m6867e7616d" d="M 0 2 
C 0.530406 2 1.03916 1.789267 1.414214 1.414214 
C 1.789267 1.03916 2 0.530406 2 0 
C 2 -0.530406 1.789267 -1.03916 1.414214 -1.414214 
C 1.03916 -1.789267 0.530406 -2 0 -2 
C -0.530406 -2 -1.03916 -1.789267 -1.414214 -1.414214 
C -1.789267 -1.03916 -2 -0.530406 -2 0 
C -2 0.530406 -1.789267 1.03916 -1.414214 1.414214 
C -1.03916 1.789267 -0.530406 2 0 2 
z
" style="stroke: #ff7f0e"/>
    </defs>
    <g clip-path="url(#p5e1aef13d3)">
     <use xlink:href="#m6867e7616d" x="93.122045" y="373.499096" style="fill: #ff7f0e; stroke: #ff7f0e"/>
     <use xlink:href="#m6867e7616d" x="138.255962" y="373.109869" style="fill: #ff7f0e; stroke: #ff7f0e"/>
     <use xlink:href="#m6867e7616d" x="183.389878" y="372.604568" style="fill: #ff7f0e; stroke: #ff7f0e"/>
     <use xlink:href="#m6867e7616d" x="228.523794" y="370.800699" style="fill: #ff7f0e; stroke: #ff7f0e"/>
     <use xlink:href="#m6867e7616d" x="318.791626" y="370.7673" style="fill: #ff7f0e; stroke: #ff7f0e"/>
     <use xlink:href="#m6867e7616d" x="409.059458" y="370.731522" style="fill: #ff7f0e; stroke: #ff7f0e"/>
     <use xlink:href="#m6867e7616d" x="499.32729" y="367.399619" style="fill: #ff7f0e; stroke: #ff7f0e"/>
     <use xlink:href="#m6867e7616d" x="589.595122" y="367.197313" style="fill: #ff7f0e; stroke: #ff7f0e"/>
     <use xlink:href="#m6867e7616d" x="679.862955" y="367.137594" style="fill: #ff7f0e; stroke: #ff7f0e"/>
    </g>
   </g>
   <g id="line2d_27">
    <path d="M 93.122045 373.5 
L 138.255962 373.118576 
L 183.389878 372.369015 
L 228.523794 371.11775 
L 318.791626 370.742202 
L 409.059458 370.738546 
L 499.32729 367.398531 
L 589.595122 367.181293 
L 679.862955 367.209484 
" clip-path="url(#p5e1aef13d3)" style="fill: none; stroke: #2ca02c; stroke-width: 1.5; stroke-linecap: square"/>
    <defs>
     <path id="mf770060407" d="M 0 2 
C 0.530406 2 1.03916 1.789267 1.414214 1.414214 
C 1.789267 1.03916 2 0.530406 2 0 
C 2 -0.530406 1.789267 -1.03916 1.414214 -1.414214 
C 1.03916 -1.789267 0.530406 -2 0 -2 
C -0.530406 -2 -1.03916 -1.789267 -1.414214 -1.414214 
C -1.789267 -1.03916 -2 -0.530406 -2 0 
C -2 0.530406 -1.789267 1.03916 -1.414214 1.414214 
C -1.03916 1.789267 -0.530406 2 0 2 
z
" style="stroke: #2ca02c"/>
    </defs>
    <g clip-path="url(#p5e1aef13d3)">
     <use xlink:href="#mf770060407" x="93.122045" y="373.5" style="fill: #2ca02c; stroke: #2ca02c"/>
     <use xlink:href="#mf770060407" x="138.255962" y="373.118576" style="fill: #2ca02c; stroke: #2ca02c"/>
     <use xlink:href="#mf770060407" x="183.389878" y="372.369015" style="fill: #2ca02c; stroke: #2ca02c"/>
     <use xlink:href="#mf770060407" x="228.523794" y="371.11775" style="fill: #2ca02c; stroke: #2ca02c"/>
     <use xlink:href="#mf770060407" x="318.791626" y="370.742202" style="fill: #2ca02c; stroke: #2ca02c"/>
     <use xlink:href="#mf770060407" x="409.059458" y="370.738546" style="fill: #2ca02c; stroke: #2ca02c"/>
     <use xlink:href="#mf770060407" x="499.32729" y="367.398531" style="fill: #2ca02c; stroke: #2ca02c"/>
     <use xlink:href="#mf770060407" x="589.595122" y="367.181293" style="fill: #2ca02c; stroke: #2ca02c"/>
     <use xlink:href="#mf770060407" x="679.862955" y="367.209484" style="fill: #2ca02c; stroke: #2ca02c"/>
    </g>
   </g>
   <g id="line2d_28">
    <path d="M 93.122045 366.287047 
L 138.255962 359.707146 
L 183.389878 352.093958 
L 228.523794 324.763459 
L 318.791626 315.562842 
L 409.059458 336.746012 
L 499.32729 342.926153 
L 589.595122 343.765813 
L 679.862955 343.941822 
" clip-path="url(#p5e1aef13d3)" style="fill: none; stroke: #d62728; stroke-width: 1.5; stroke-linecap: square"/>
    <defs>
     <path id="m01fcc9be2b" d="M 0 2 
C 0.530406 2 1.03916 1.789267 1.414214 1.414214 
C 1.789267 1.03916 2 0.530406 2 0 
C 2 -0.530406 1.789267 -1.03916 1.414214 -1.414214 
C 1.03916 -1.789267 0.530406 -2 0 -2 
C -0.530406 -2 -1.03916 -1.789267 -1.414214 -1.414214 
C -1.789267 -1.03916 -2 -0.530406 -2 0 
C -2 0.530406 -1.789267 1.03916 -1.414214 1.414214 
C -1.03916 1.789267 -0.530406 2 0 2 
z
" style="stroke: #d62728"/>
    </defs>
    <g clip-path="url(#p5e1aef13d3)">
     <use xlink:href="#m01fcc9be2b" x="93.122045" y="366.287047" style="fill: #d62728; stroke: #d62728"/>
     <use xlink:href="#m01fcc9be2b" x="138.255962" y="359.707146" style="fill: #d62728; stroke: #d62728"/>
     <use xlink:href="#m01fcc9be2b" x="183.389878" y="352.093958" style="fill: #d62728; stroke: #d62728"/>
     <use xlink:href="#m01fcc9be2b" x="228.523794" y="324.763459" style="fill: #d62728; stroke: #d62728"/>
     <use xlink:href="#m01fcc9be2b" x="318.791626" y="315.562842" style="fill: #d62728; stroke: #d62728"/>
     <use xlink:href="#m01fcc9be2b" x="409.059458" y="336.746012" style="fill: #d62728; stroke: #d62728"/>
     <use xlink:href="#m01fcc9be2b" x="499.32729" y="342.926153" style="fill: #d62728; stroke: #d62728"/>
     <use xlink:href="#m01fcc9be2b" x="589.595122" y="343.765813" style="fill: #d62728; stroke: #d62728"/>
     <use xlink:href="#m01fcc9be2b" x="679.862955" y="343.941822" style="fill: #d62728; stroke: #d62728"/>
    </g>
   </g>
   <g id="line2d_29">
    <path d="M 93.122045 351.403472 
L 138.255962 328.640414 
L 183.389878 327.978646 
L 228.523794 306.733141 
L 318.791626 252.980307 
L 409.059458 243.854439 
L 499.32729 249.140967 
L 589.595122 252.600164 
L 679.862955 257.39228 
" clip-path="url(#p5e1aef13d3)" style="fill: none; stroke: #9467bd; stroke-width: 1.5; stroke-linecap: square"/>
    <defs>
     <path id="m2375738119" d="M 0 2 
C 0.530406 2 1.03916 1.789267 1.414214 1.414214 
C 1.789267 1.03916 2 0.530406 2 0 
C 2 -0.530406 1.789267 -1.03916 1.414214 -1.414214 
C 1.03916 -1.789267 0.530406 -2 0 -2 
C -0.530406 -2 -1.03916 -1.789267 -1.414214 -1.414214 
C -1.789267 -1.03916 -2 -0.530406 -2 0 
C -2 0.530406 -1.789267 1.03916 -1.414214 1.414214 
C -1.03916 1.789267 -0.530406 2 0 2 
z
" style="stroke: #9467bd"/>
    </defs>
    <g clip-path="url(#p5e1aef13d3)">
     <use xlink:href="#m2375738119" x="93.122045" y="351.403472" style="fill: #9467bd; stroke: #9467bd"/>
     <use xlink:href="#m2375738119" x="138.255962" y="328.640414" style="fill: #9467bd; stroke: #9467bd"/>
     <use xlink:href="#m2375738119" x="183.389878" y="327.978646" style="fill: #9467bd; stroke: #9467bd"/>
     <use xlink:href="#m2375738119" x="228.523794" y="306.733141" style="fill: #9467bd; stroke: #9467bd"/>
     <use xlink:href="#m2375738119" x="318.791626" y="252.980307" style="fill: #9467bd; stroke: #9467bd"/>
     <use xlink:href="#m2375738119" x="409.059458" y="243.854439" style="fill: #9467bd; stroke: #9467bd"/>
     <use xlink:href="#m2375738119" x="499.32729" y="249.140967" style="fill: #9467bd; stroke: #9467bd"/>
     <use xlink:href="#m2375738119" x="589.595122" y="252.600164" style="fill: #9467bd; stroke: #9467bd"/>
     <use xlink:href="#m2375738119" x="679.862955" y="257.39228" style="fill: #9467bd; stroke: #9467bd"/>
    </g>
   </g>
   <g id="line2d_30">
    <path d="M 93.122045 362.544241 
L 138.255962 351.014892 
L 183.389878 327.833035 
L 228.523794 295.359752 
L 318.791626 228.763622 
L 409.059458 131.219312 
L 499.32729 78.696756 
L 589.595122 42.7 
L 679.862955 61.799101 
" clip-path="url(#p5e1aef13d3)" style="fill: none; stroke: #8c564b; stroke-width: 1.5; stroke-linecap: square"/>
    <defs>
     <path id="m401a9b6c93" d="M 0 2 
C 0.530406 2 1.03916 1.789267 1.414214 1.414214 
C 1.789267 1.03916 2 0.530406 2 0 
C 2 -0.530406 1.789267 -1.03916 1.414214 -1.414214 
C 1.03916 -1.789267 0.530406 -2 0 -2 
C -0.530406 -2 -1.03916 -1.789267 -1.414214 -1.414214 
C -1.789267 -1.03916 -2 -0.530406 -2 0 
C -2 0.530406 -1.789267 1.03916 -1.414214 1.414214 
C -1.03916 1.789267 -0.530406 2 0 2 
z
" style="stroke: #8c564b"/>
    </defs>
    <g clip-path="url(#p5e1aef13d3)">
     <use xlink:href="#m401a9b6c93" x="93.122045" y="362.544241" style="fill: #8c564b; stroke: #8c564b"/>
     <use xlink:href="#m401a9b6c93" x="138.255962" y="351.014892" style="fill: #8c564b; stroke: #8c564b"/>
     <use xlink:href="#m401a9b6c93" x="183.389878" y="327.833035" style="fill: #8c564b; stroke: #8c564b"/>
     <use xlink:href="#m401a9b6c93" x="228.523794" y="295.359752" style="fill: #8c564b; stroke: #8c564b"/>
     <use xlink:href="#m401a9b6c93" x="318.791626" y="228.763622" style="fill: #8c564b; stroke: #8c564b"/>
     <use xlink:href="#m401a9b6c93" x="409.059458" y="131.219312" style="fill: #8c564b; stroke: #8c564b"/>
     <use xlink:href="#m401a9b6c93" x="499.32729" y="78.696756" style="fill: #8c564b; stroke: #8c564b"/>
     <use xlink:href="#m401a9b6c93" x="589.595122" y="42.7" style="fill: #8c564b; stroke: #8c564b"/>
     <use xlink:href="#m401a9b6c93" x="679.862955" y="61.799101" style="fill: #8c564b; stroke: #8c564b"/>
    </g>
   </g>
   <g id="line2d_31">
    <path d="M 93.122045 372.544785 
L 138.255962 371.522314 
L 183.389878 368.551835 
L 228.523794 364.525312 
L 318.791626 354.85309 
L 409.059458 349.555158 
L 499.32729 346.735954 
L 589.595122 346.006064 
L 679.862955 345.416971 
" clip-path="url(#p5e1aef13d3)" style="fill: none; stroke: #e377c2; stroke-width: 1.5; stroke-linecap: square"/>
    <defs>
     <path id="m7b215e11df" d="M 0 2 
C 0.530406 2 1.03916 1.789267 1.414214 1.414214 
C 1.789267 1.03916 2 0.530406 2 0 
C 2 -0.530406 1.789267 -1.03916 1.414214 -1.414214 
C 1.03916 -1.789267 0.530406 -2 0 -2 
C -0.530406 -2 -1.03916 -1.789267 -1.414214 -1.414214 
C -1.789267 -1.03916 -2 -0.530406 -2 0 
C -2 0.530406 -1.789267 1.03916 -1.414214 1.414214 
C -1.03916 1.789267 -0.530406 2 0 2 
z
" style="stroke: #e377c2"/>
    </defs>
    <g clip-path="url(#p5e1aef13d3)">
     <use xlink:href="#m7b215e11df" x="93.122045" y="372.544785" style="fill: #e377c2; stroke: #e377c2"/>
     <use xlink:href="#m7b215e11df" x="138.255962" y="371.522314" style="fill: #e377c2; stroke: #e377c2"/>
     <use xlink:href="#m7b215e11df" x="183.389878" y="368.551835" style="fill: #e377c2; stroke: #e377c2"/>
     <use xlink:href="#m7b215e11df" x="228.523794" y="364.525312" style="fill: #e377c2; stroke: #e377c2"/>
     <use xlink:href="#m7b215e11df" x="318.791626" y="354.85309" style="fill: #e377c2; stroke: #e377c2"/>
     <use xlink:href="#m7b215e11df" x="409.059458" y="349.555158" style="fill: #e377c2; stroke: #e377c2"/>
     <use xlink:href="#m7b215e11df" x="499.32729" y="346.735954" style="fill: #e377c2; stroke: #e377c2"/>
     <use xlink:href="#m7b215e11df" x="589.595122" y="346.006064" style="fill: #e377c2; stroke: #e377c2"/>
     <use xlink:href="#m7b215e11df" x="679.862955" y="345.416971" style="fill: #e377c2; stroke: #e377c2"/>
    </g>
   </g>
   <g id="line2d_32">
    <path d="M 93.122045 369.509873 
L 138.255962 366.619325 
L 183.389878 363.482069 
L 228.523794 361.002512 
L 318.791626 360.945128 
L 409.059458 361.529128 
L 499.32729 361.542392 
L 589.595122 360.936448 
L 679.862955 361.558213 
" clip-path="url(#p5e1aef13d3)" style="fill: none; stroke: #7f7f7f; stroke-width: 1.5; stroke-linecap: square"/>
    <defs>
     <path id="md6c7ea7f43" d="M 0 2 
C 0.530406 2 1.03916 1.789267 1.414214 1.414214 
C 1.789267 1.03916 2 0.530406 2 0 
C 2 -0.530406 1.789267 -1.03916 1.414214 -1.414214 
C 1.03916 -1.789267 0.530406 -2 0 -2 
C -0.530406 -2 -1.03916 -1.789267 -1.414214 -1.414214 
C -1.789267 -1.03916 -2 -0.530406 -2 0 
C -2 0.530406 -1.789267 1.03916 -1.414214 1.414214 
C -1.03916 1.789267 -0.530406 2 0 2 
z
" style="stroke: #7f7f7f"/>
    </defs>
    <g clip-path="url(#p5e1aef13d3)">
     <use xlink:href="#md6c7ea7f43" x="93.122045" y="369.509873" style="fill: #7f7f7f; stroke: #7f7f7f"/>
     <use xlink:href="#md6c7ea7f43" x="138.255962" y="366.619325" style="fill: #7f7f7f; stroke: #7f7f7f"/>
     <use xlink:href="#md6c7ea7f43" x="183.389878" y="363.482069" style="fill: #7f7f7f; stroke: #7f7f7f"/>
     <use xlink:href="#md6c7ea7f43" x="228.523794" y="361.002512" style="fill: #7f7f7f; stroke: #7f7f7f"/>
     <use xlink:href="#md6c7ea7f43" x="318.791626" y="360.945128" style="fill: #7f7f7f; stroke: #7f7f7f"/>
     <use xlink:href="#md6c7ea7f43" x="409.059458" y="361.529128" style="fill: #7f7f7f; stroke: #7f7f7f"/>
     <use xlink:href="#md6c7ea7f43" x="499.32729" y="361.542392" style="fill: #7f7f7f; stroke: #7f7f7f"/>
     <use xlink:href="#md6c7ea7f43" x="589.595122" y="360.936448" style="fill: #7f7f7f; stroke: #7f7f7f"/>
     <use xlink:href="#md6c7ea7f43" x="679.862955" y="361.558213" style="fill: #7f7f7f; stroke: #7f7f7f"/>
    </g>
   </g>
   <g id="line2d_33">
    <path d="M 93.122045 371.093467 
L 138.255962 369.564709 
L 183.389878 368.214143 
L 228.523794 367.662122 
L 318.791626 367.372005 
L 409.059458 367.128285 
L 499.32729 367.129479 
L 589.595122 367.428011 
L 679.862955 367.278946 
" clip-path="url(#p5e1aef13d3)" style="fill: none; stroke: #bcbd22; stroke-width: 1.5; stroke-linecap: square"/>
    <defs>
     <path id="m0e606e8961" d="M 0 2 
C 0.530406 2 1.03916 1.789267 1.414214 1.414214 
C 1.789267 1.03916 2 0.530406 2 0 
C 2 -0.530406 1.789267 -1.03916 1.414214 -1.414214 
C 1.03916 -1.789267 0.530406 -2 0 -2 
C -0.530406 -2 -1.03916 -1.789267 -1.414214 -1.414214 
C -1.789267 -1.03916 -2 -0.530406 -2 0 
C -2 0.530406 -1.789267 1.03916 -1.414214 1.414214 
C -1.03916 1.789267 -0.530406 2 0 2 
z
" style="stroke: #bcbd22"/>
    </defs>
    <g clip-path="url(#p5e1aef13d3)">
     <use xlink:href="#m0e606e8961" x="93.122045" y="371.093467" style="fill: #bcbd22; stroke: #bcbd22"/>
     <use xlink:href="#m0e606e8961" x="138.255962" y="369.564709" style="fill: #bcbd22; stroke: #bcbd22"/>
     <use xlink:href="#m0e606e8961" x="183.389878" y="368.214143" style="fill: #bcbd22; stroke: #bcbd22"/>
     <use xlink:href="#m0e606e8961" x="228.523794" y="367.662122" style="fill: #bcbd22; stroke: #bcbd22"/>
     <use xlink:href="#m0e606e8961" x="318.791626" y="367.372005" style="fill: #bcbd22; stroke: #bcbd22"/>
     <use xlink:href="#m0e606e8961" x="409.059458" y="367.128285" style="fill: #bcbd22; stroke: #bcbd22"/>
     <use xlink:href="#m0e606e8961" x="499.32729" y="367.129479" style="fill: #bcbd22; stroke: #bcbd22"/>
     <use xlink:href="#m0e606e8961" x="589.595122" y="367.428011" style="fill: #bcbd22; stroke: #bcbd22"/>
     <use xlink:href="#m0e606e8961" x="679.862955" y="367.278946" style="fill: #bcbd22; stroke: #bcbd22"/>
    </g>
   </g>
   <g id="line2d_34">
    <path d="M 93.122045 363.885772 
L 138.255962 355.255493 
L 183.389878 336.689488 
L 228.523794 316.320309 
L 318.791626 289.454301 
L 409.059458 286.267984 
L 499.32729 299.251365 
L 589.595122 300.096986 
L 679.862955 301.55062 
" clip-path="url(#p5e1aef13d3)" style="fill: none; stroke: #17becf; stroke-width: 1.5; stroke-linecap: square"/>
    <defs>
     <path id="mcedfec6891" d="M 0 2 
C 0.530406 2 1.03916 1.789267 1.414214 1.414214 
C 1.789267 1.03916 2 0.530406 2 0 
C 2 -0.530406 1.789267 -1.03916 1.414214 -1.414214 
C 1.03916 -1.789267 0.530406 -2 0 -2 
C -0.530406 -2 -1.03916 -1.789267 -1.414214 -1.414214 
C -1.789267 -1.03916 -2 -0.530406 -2 0 
C -2 0.530406 -1.789267 1.03916 -1.414214 1.414214 
C -1.03916 1.789267 -0.530406 2 0 2 
z
" style="stroke: #17becf"/>
    </defs>
    <g clip-path="url(#p5e1aef13d3)">
     <use xlink:href="#mcedfec6891" x="93.122045" y="363.885772" style="fill: #17becf; stroke: #17becf"/>
     <use xlink:href="#mcedfec6891" x="138.255962" y="355.255493" style="fill: #17becf; stroke: #17becf"/>
     <use xlink:href="#mcedfec6891" x="183.389878" y="336.689488" style="fill: #17becf; stroke: #17becf"/>
     <use xlink:href="#mcedfec6891" x="228.523794" y="316.320309" style="fill: #17becf; stroke: #17becf"/>
     <use xlink:href="#mcedfec6891" x="318.791626" y="289.454301" style="fill: #17becf; stroke: #17becf"/>
     <use xlink:href="#mcedfec6891" x="409.059458" y="286.267984" style="fill: #17becf; stroke: #17becf"/>
     <use xlink:href="#mcedfec6891" x="499.32729" y="299.251365" style="fill: #17becf; stroke: #17becf"/>
     <use xlink:href="#mcedfec6891" x="589.595122" y="300.096986" style="fill: #17becf; stroke: #17becf"/>
     <use xlink:href="#mcedfec6891" x="679.862955" y="301.55062" style="fill: #17becf; stroke: #17becf"/>
    </g>
   </g>
   <g id="line2d_35">
    <path d="M 93.122045 356.551509 
L 138.255962 340.280017 
L 183.389878 329.912565 
L 228.523794 321.209429 
L 318.791626 281.005344 
L 409.059458 244.126389 
L 499.32729 239.468718 
L 589.595122 246.587524 
L 679.862955 245.978723 
" clip-path="url(#p5e1aef13d3)" style="fill: none; stroke: #1f77b4; stroke-width: 1.5; stroke-linecap: square"/>
    <g clip-path="url(#p5e1aef13d3)">
     <use xlink:href="#mbcb56c176d" x="93.122045" y="356.551509" style="fill: #1f77b4; stroke: #1f77b4"/>
     <use xlink:href="#mbcb56c176d" x="138.255962" y="340.280017" style="fill: #1f77b4; stroke: #1f77b4"/>
     <use xlink:href="#mbcb56c176d" x="183.389878" y="329.912565" style="fill: #1f77b4; stroke: #1f77b4"/>
     <use xlink:href="#mbcb56c176d" x="228.523794" y="321.209429" style="fill: #1f77b4; stroke: #1f77b4"/>
     <use xlink:href="#mbcb56c176d" x="318.791626" y="281.005344" style="fill: #1f77b4; stroke: #1f77b4"/>
     <use xlink:href="#mbcb56c176d" x="409.059458" y="244.126389" style="fill: #1f77b4; stroke: #1f77b4"/>
     <use xlink:href="#mbcb56c176d" x="499.32729" y="239.468718" style="fill: #1f77b4; stroke: #1f77b4"/>
     <use xlink:href="#mbcb56c176d" x="589.595122" y="246.587524" style="fill: #1f77b4; stroke: #1f77b4"/>
     <use xlink:href="#mbcb56c176d" x="679.862955" y="245.978723" style="fill: #1f77b4; stroke: #1f77b4"/>
    </g>
   </g>
   <g id="line2d_36">
    <path d="M 93.122045 358.139547 
L 138.255962 343.428242 
L 183.389878 333.319119 
L 228.523794 325.362162 
L 318.791626 313.404745 
L 409.059458 265.311877 
L 499.32729 248.764662 
L 589.595122 247.862748 
L 679.862955 246.426011 
" clip-path="url(#p5e1aef13d3)" style="fill: none; stroke: #ff7f0e; stroke-width: 1.5; stroke-linecap: square"/>
    <g clip-path="url(#p5e1aef13d3)">
     <use xlink:href="#m6867e7616d" x="93.122045" y="358.139547" style="fill: #ff7f0e; stroke: #ff7f0e"/>
     <use xlink:href="#m6867e7616d" x="138.255962" y="343.428242" style="fill: #ff7f0e; stroke: #ff7f0e"/>
     <use xlink:href="#m6867e7616d" x="183.389878" y="333.319119" style="fill: #ff7f0e; stroke: #ff7f0e"/>
     <use xlink:href="#m6867e7616d" x="228.523794" y="325.362162" style="fill: #ff7f0e; stroke: #ff7f0e"/>
     <use xlink:href="#m6867e7616d" x="318.791626" y="313.404745" style="fill: #ff7f0e; stroke: #ff7f0e"/>
     <use xlink:href="#m6867e7616d" x="409.059458" y="265.311877" style="fill: #ff7f0e; stroke: #ff7f0e"/>
     <use xlink:href="#m6867e7616d" x="499.32729" y="248.764662" style="fill: #ff7f0e; stroke: #ff7f0e"/>
     <use xlink:href="#m6867e7616d" x="589.595122" y="247.862748" style="fill: #ff7f0e; stroke: #ff7f0e"/>
     <use xlink:href="#m6867e7616d" x="679.862955" y="246.426011" style="fill: #ff7f0e; stroke: #ff7f0e"/>
    </g>
   </g>
   <g id="patch_3">
    <path d="M 63.785 390.04 
L 63.785 26.16 
" style="fill: none; stroke: #000000; stroke-width: 0.8; stroke-linejoin: miter; stroke-linecap: square"/>
   </g>
   <g id="patch_4">
    <path d="M 709.2 390.04 
L 709.2 26.16 
" style="fill: none; stroke: #000000; stroke-width: 0.8; stroke-linejoin: miter; stroke-linecap: square"/>
   </g>
   <g id="patch_5">
    <path d="M 63.785 390.04 
L 709.2 390.04 
" style="fill: none; stroke: #000000; stroke-width: 0.8; stroke-linejoin: miter; stroke-linecap: square"/>
   </g>
   <g id="patch_6">
    <path d="M 63.785 26.16 
L 709.2 26.16 
" style="fill: none; stroke: #000000; stroke-width: 0.8; stroke-linejoin: miter; stroke-linecap: square"/>
   </g>
   <g id="text_15">
    <!-- Hash throughput — low_entropy -->
    <g transform="translate(289.664688 20.16) scale(0.12 -0.12)">
     <defs>
      <path id="DejaVuSans-48" d="M 628 4666 
L 1259 4666 
L 1259 2753 
L 3553 2753 
L 3553 4666 
L 4184 4666 
L 4184 0 
L 3553 0 
L 3553 2222 
L 1259 2222 
L 1259 0 
L 628 0 
L 628 4666 
z
" transform="scale(0.015625)"/>
      <path id="DejaVuSans-61" d="M 2194 1759 
Q 1497 1759 1228 1600 
Q 959 1441 959 1056 
Q 959 750 1161 570 
Q 1363 391 1709 391 
Q 2188 391 2477 730 
Q 2766 1069 2766 1631 
L 2766 1759 
L 2194 1759 
z
M 3341 1997 
L 3341 0 
L 2766 0 
L 2766 531 
Q 2569 213 2275 61 
Q 1981 -91 1556 -91 
Q 1019 -91 701 211 
Q 384 513 384 1019 
Q 384 1609 779 1909 
Q 1175 2209 1959 2209 
L 2766 2209 
L 2766 2266 
Q 2766 2663 2505 2880 
Q 2244 3097 1772 3097 
Q 1472 3097 1187 3025 
Q 903 2953 641 2809 
L 641 3341 
Q 956 3463 1253 3523 
Q 1550 3584 1831 3584 
Q 2591 3584 2966 3190 
Q 3341 2797 3341 1997 
z
" transform="scale(0.015625)"/>
      <path id="DejaVuSans-2014" d="M 313 1978 
L 6088 1978 
L 6088 1528 
L 313 1528 
L 313 1978 
z
" transform="scale(0.015625)"/>
      <path id="DejaVuSans-77" d="M 269 3500 
L 844 3500 
L 1563 769 
L 2278 3500 
L 2956 3500 
L 3675 769 
L 4391 3500 
L 4966 3500 
L 4050 0 
L 3372 0 
L 2619 2869 
L 1863 0 
L 1184 0 
L 269 3500 
z
" transform="scale(0.015625)"/>
      <path id="DejaVuSans-5f" d="M 3263 -1063 
L 3263 -1509 
L -63 -1509 
L -63 -1063 
L 3263 -1063 
z
" transform="scale(0.015625)"/>
     </defs>
     <use xlink:href="#DejaVuSans-48"/>
     <use xlink:href="#DejaVuSans-61" transform="translate(75.195312 0)"/>
     <use xlink:href="#DejaVuSans-73" transform="translate(136.474609 0)"/>
     <use xlink:href="#DejaVuSans-68" transform="translate(188.574219 0)"/>
     <use xlink:href="#DejaVuSans-20" transform="translate(251.953125 0)"/>
     <use xlink:href="#DejaVuSans-74" transform="translate(283.740234 0)"/>
     <use xlink:href="#DejaVuSans-68" transform="translate(322.949219 0)"/>
     <use xlink:href="#DejaVuSans-72" transform="translate(386.328125 0)"/>
     <use xlink:href="#DejaVuSans-6f" transform="translate(425.191406 0)"/>
     <use xlink:href="#DejaVuSans-75" transform="translate(486.373047 0)"/>
     <use xlink:href="#DejaVuSans-67" transform="translate(549.751953 0)"/>
     <use xlink:href="#DejaVuSans-68" transform="translate(613.228516 0)"/>
     <use xlink:href="#DejaVuSans-70" transform="translate(676.607422 0)"/>
     <use xlink:href="#DejaVuSans-75" transform="translate(740.083984 0)"/>
     <use xlink:href="#DejaVuSans-74" transform="translate(803.462891 0)"/>
     <use xlink:href="#DejaVuSans-20" transform="translate(842.671875 0)"/>
     <use xlink:href="#DejaVuSans-2014" transform="translate(874.458984 0)"/>
     <use xlink:href="#DejaVuSans-20" transform="translate(974.458984 0)"/>
     <use xlink:href="#DejaVuSans-6c" transform="translate(1006.246094 0)"/>
     <use xlink:href="#DejaVuSans-6f" transform="translate(1034.029297 0)"/>
     <use xlink:href="#DejaVuSans-77" transform="translate(1095.210938 0)"/>
     <use xlink:href="#DejaVuSans-5f" transform="translate(1176.998047 0)"/>
     <use xlink:href="#DejaVuSans-65" transform="translate(1226.998047 0)"/>
     <use xlink:href="#DejaVuSans-6e" transform="translate(1288.521484 0)"/>
     <use xlink:href="#DejaVuSans-74" transform="translate(1351.900391 0)"/>
     <use xlink:href="#DejaVuSans-72" transform="translate(1391.109375 0)"/>
     <use xlink:href="#DejaVuSans-6f" transform="translate(1429.972656 0)"/>
     <use xlink:href="#DejaVuSans-70" transform="translate(1491.154297 0)"/>
     <use xlink:href="#DejaVuSans-79" transform="translate(1554.630859 0)"/>
    </g>
   </g>
   <g id="legend_1">
    <g id="patch_7">
     <path d="M 68.685 155.445625 
L 138.825 155.445625 
Q 140.225 155.445625 140.225 154.045625 
L 140.225 31.06 
Q 140.225 29.66 138.825 29.66 
L 68.685 29.66 
Q 67.285 29.66 67.285 31.06 
L 67.285 154.045625 
Q 67.285 155.445625 68.685 155.445625 
z
" style="fill: #ffffff; opacity: 0.8; stroke: #cccccc; stroke-linejoin: miter"/>
    </g>
    <g id="line2d_37">
     <path d="M 70.085 35.328906 
L 77.085 35.328906 
L 84.085 35.328906 
" style="fill: none; stroke: #1f77b4; stroke-width: 1.5; stroke-linecap: square"/>
     <g>
      <use xlink:href="#mbcb56c176d" x="77.085" y="35.328906" style="fill: #1f77b4; stroke: #1f77b4"/>
     </g>
    </g>
    <g id="text_16">
     <!-- ahash -->
     <g transform="translate(89.685 37.778906) scale(0.07 -0.07)">
      <use xlink:href="#DejaVuSans-61"/>
      <use xlink:href="#DejaVuSans-68" transform="translate(61.279297 0)"/>
      <use xlink:href="#DejaVuSans-61" transform="translate(124.658203 0)"/>
      <use xlink:href="#DejaVuSans-73" transform="translate(185.9375 0)"/>
      <use xlink:href="#DejaVuSans-68" transform="translate(238.037109 0)"/>
     </g>
    </g>
    <g id="line2d_38">
     <path d="M 70.085 45.603594 
L 77.085 45.603594 
L 84.085 45.603594 
" style="fill: none; stroke: #ff7f0e; stroke-width: 1.5; stroke-linecap: square"/>
     <g>
      <use xlink:href="#m6867e7616d" x="77.085" y="45.603594" style="fill: #ff7f0e; stroke: #ff7f0e"/>
     </g>
    </g>
    <g id="text_17">
     <!-- blake3 -->
     <g transform="translate(89.685 48.053594) scale(0.07 -0.07)">
      <defs>
       <path id="DejaVuSans-6b" d="M 581 4863 
L 1159 4863 
L 1159 1991 
L 2875 3500 
L 3609 3500 
L 1753 1863 
L 3688 0 
L 2938 0 
L 1159 1709 
L 1159 0 
L 581 0 
L 581 4863 
z
" transform="scale(0.015625)"/>
       <path id="DejaVuSans-33" d="M 2597 2516 
Q 3050 2419 3304 2112 
Q 3559 1806 3559 1356 
Q 3559 666 3084 287 
Q 2609 -91 1734 -91 
Q 1441 -91 1130 -33 
Q 819 25 488 141 
L 488 750 
Q 750 597 1062 519 
Q 1375 441 1716 441 
Q 2309 441 2620 675 
Q 2931 909 2931 1356 
Q 2931 1769 2642 2001 
Q 2353 2234 1838 2234 
L 1294 2234 
L 1294 2753 
L 1863 2753 
Q 2328 2753 2575 2939 
Q 2822 3125 2822 3475 
Q 2822 3834 2567 4026 
Q 2313 4219 1838 4219 
Q 1578 4219 1281 4162 
Q 984 4106 628 3988 
L 628 4550 
Q 988 4650 1302 4700 
Q 1616 4750 1894 4750 
Q 2613 4750 3031 4423 
Q 3450 4097 3450 3541 
Q 3450 3153 3228 2886 
Q 3006 2619 2597 2516 
z
" transform="scale(0.015625)"/>
      </defs>
      <use xlink:href="#DejaVuSans-62"/>
      <use xlink:href="#DejaVuSans-6c" transform="translate(63.476562 0)"/>
      <use xlink:href="#DejaVuSans-61" transform="translate(91.259766 0)"/>
      <use xlink:href="#DejaVuSans-6b" transform="translate(152.539062 0)"/>
      <use xlink:href="#DejaVuSans-65" transform="translate(206.824219 0)"/>
      <use xlink:href="#DejaVuSans-33" transform="translate(268.347656 0)"/>
     </g>
    </g>
    <g id="line2d_39">
     <path d="M 70.085 55.878281 
L 77.085 55.878281 
L 84.085 55.878281 
" style="fill: none; stroke: #2ca02c; stroke-width: 1.5; stroke-linecap: square"/>
     <g>
      <use xlink:href="#mf770060407" x="77.085" y="55.878281" style="fill: #2ca02c; stroke: #2ca02c"/>
     </g>
    </g>
    <g id="text_18">
     <!-- blake3_keyed -->
     <g transform="translate(89.685 58.328281) scale(0.07 -0.07)">
      <defs>
       <path id="DejaVuSans-64" d="M 2906 2969 
L 2906 4863 
L 3481 4863 
L 3481 0 
L 2906 0 
L 2906 525 
Q 2725 213 2448 61 
Q 2172 -91 1784 -91 
Q 1150 -91 751 415 
Q 353 922 353 1747 
Q 353 2572 751 3078 
Q 1150 3584 1784 3584 
Q 2172 3584 2448 3432 
Q 2725 3281 2906 2969 
z
M 947 1747 
Q 947 1113 1208 752 
Q 1469 391 1925 391 
Q 2381 391 2643 752 
Q 2906 1113 2906 1747 
Q 2906 2381 2643 2742 
Q 2381 3103 1925 3103 
Q 1469 3103 1208 2742 
Q 947 2381 947 1747 
z
" transform="scale(0.015625)"/>
      </defs>
      <use xlink:href="#DejaVuSans-62"/>
      <use xlink:href="#DejaVuSans-6c" transform="translate(63.476562 0)"/>
      <use xlink:href="#DejaVuSans-61" transform="translate(91.259766 0)"/>
      <use xlink:href="#DejaVuSans-6b" transform="translate(152.539062 0)"/>
      <use xlink:href="#DejaVuSans-65" transform="translate(206.824219 0)"/>
      <use xlink:href="#DejaVuSans-33" transform="translate(268.347656 0)"/>
      <use xlink:href="#DejaVuSans-5f" transform="translate(331.970703 0)"/>
      <use xlink:href="#DejaVuSans-6b" transform="translate(381.970703 0)"/>
      <use xlink:href="#DejaVuSans-65" transform="translate(436.255859 0)"/>
      <use xlink:href="#DejaVuSans-79" transform="translate(497.779297 0)"/>
      <use xlink:href="#DejaVuSans-65" transform="translate(556.958984 0)"/>
      <use xlink:href="#DejaVuSans-64" transform="translate(618.482422 0)"/>
     </g>
    </g>
    <g id="line2d_40">
     <path d="M 70.085 66.347656 
L 77.085 66.347656 
L 84.085 66.347656 
" style="fill: none; stroke: #d62728; stroke-width: 1.5; stroke-linecap: square"/>
     <g>
      <use xlink:href="#m01fcc9be2b" x="77.085" y="66.347656" style="fill: #d62728; stroke: #d62728"/>
     </g>
    </g>
    <g id="text_19">
     <!-- crc32c -->
     <g transform="translate(89.685 68.797656) scale(0.07 -0.07)">
      <defs>
       <path id="DejaVuSans-63" d="M 3122 3366 
L 3122 2828 
Q 2878 2963 2633 3030 
Q 2388 3097 2138 3097 
Q 1578 3097 1268 2742 
Q 959 2388 959 1747 
Q 959 1106 1268 751 
Q 1578 397 2138 397 
Q 2388 397 2633 464 
Q 2878 531 3122 666 
L 3122 134 
Q 2881 22 2623 -34 
Q 2366 -91 2075 -91 
Q 1284 -91 818 406 
Q 353 903 353 1747 
Q 353 2603 823 3093 
Q 1294 3584 2113 3584 
Q 2378 3584 2631 3529 
Q 2884 3475 3122 3366 
z
" transform="scale(0.015625)"/>
      </defs>
      <use xlink:href="#DejaVuSans-63"/>
      <use xlink:href="#DejaVuSans-72" transform="translate(54.980469 0)"/>
      <use xlink:href="#DejaVuSans-63" transform="translate(93.84375 0)"/>
      <use xlink:href="#DejaVuSans-33" transform="translate(148.824219 0)"/>
      <use xlink:href="#DejaVuSans-32" transform="translate(212.447266 0)"/>
      <use xlink:href="#DejaVuSans-63" transform="translate(276.070312 0)"/>
     </g>
    </g>
    <g id="line2d_41">
     <path d="M 70.085 76.622344 
L 77.085 76.622344 
L 84.085 76.622344 
" style="fill: none; stroke: #9467bd; stroke-width: 1.5; stroke-linecap: square"/>
     <g>
      <use xlink:href="#m2375738119" x="77.085" y="76.622344" style="fill: #9467bd; stroke: #9467bd"/>
     </g>
    </g>
    <g id="text_20">
     <!-- foldhash -->
     <g transform="translate(89.685 79.072344) scale(0.07 -0.07)">
      <defs>
       <path id="DejaVuSans-66" d="M 2375 4863 
L 2375 4384 
L 1825 4384 
Q 1516 4384 1395 4259 
Q 1275 4134 1275 3809 
L 1275 3500 
L 2222 3500 
L 2222 3053 
L 1275 3053 
L 1275 0 
L 697 0 
L 697 3053 
L 147 3053 
L 147 3500 
L 697 3500 
L 697 3744 
Q 697 4328 969 4595 
Q 1241 4863 1831 4863 
L 2375 4863 
z
" transform="scale(0.015625)"/>
      </defs>
      <use xlink:href="#DejaVuSans-66"/>
      <use xlink:href="#DejaVuSans-6f" transform="translate(35.205078 0)"/>
      <use xlink:href="#DejaVuSans-6c" transform="translate(96.386719 0)"/>
      <use xlink:href="#DejaVuSans-64" transform="translate(124.169922 0)"/>
      <use xlink:href="#DejaVuSans-68" transform="translate(187.646484 0)"/>
      <use xlink:href="#DejaVuSans-61" transform="translate(251.025391 0)"/>
      <use xlink:href="#DejaVuSans-73" transform="translate(312.304688 0)"/>
      <use xlink:href="#DejaVuSans-68" transform="translate(364.404297 0)"/>
     </g>
    </g>
    <g id="line2d_42">
     <path d="M 70.085 86.897031 
L 77.085 86.897031 
L 84.085 86.897031 
" style="fill: none; stroke: #8c564b; stroke-width: 1.5; stroke-linecap: square"/>
     <g>
      <use xlink:href="#m401a9b6c93" x="77.085" y="86.897031" style="fill: #8c564b; stroke: #8c564b"/>
     </g>
    </g>
    <g id="text_21">
     <!-- gxhash -->
     <g transform="translate(89.685 89.347031) scale(0.07 -0.07)">
      <defs>
       <path id="DejaVuSans-78" d="M 3513 3500 
L 2247 1797 
L 3578 0 
L 2900 0 
L 1881 1375 
L 863 0 
L 184 0 
L 1544 1831 
L 300 3500 
L 978 3500 
L 1906 2253 
L 2834 3500 
L 3513 3500 
z
" transform="scale(0.015625)"/>
      </defs>
      <use xlink:href="#DejaVuSans-67"/>
      <use xlink:href="#DejaVuSans-78" transform="translate(63.476562 0)"/>
      <use xlink:href="#DejaVuSans-68" transform="translate(122.65625 0)"/>
      <use xlink:href="#DejaVuSans-61" transform="translate(186.035156 0)"/>
      <use xlink:href="#DejaVuSans-73" transform="translate(247.314453 0)"/>
      <use xlink:href="#DejaVuSans-68" transform="translate(299.414062 0)"/>
     </g>
    </g>
    <g id="line2d_43">
     <path d="M 70.085 97.171719 
L 77.085 97.171719 
L 84.085 97.171719 
" style="fill: none; stroke: #e377c2; stroke-width: 1.5; stroke-linecap: square"/>
     <g>
      <use xlink:href="#m7b215e11df" x="77.085" y="97.171719" style="fill: #e377c2; stroke: #e377c2"/>
     </g>
    </g>
    <g id="text_22">
     <!-- highway -->
     <g transform="translate(89.685 99.621719) scale(0.07 -0.07)">
      <use xlink:href="#DejaVuSans-68"/>
      <use xlink:href="#DejaVuSans-69" transform="translate(63.378906 0)"/>
      <use xlink:href="#DejaVuSans-67" transform="translate(91.162109 0)"/>
      <use xlink:href="#DejaVuSans-68" transform="translate(154.638672 0)"/>
      <use xlink:href="#DejaVuSans-77" transform="translate(218.017578 0)"/>
      <use xlink:href="#DejaVuSans-61" transform="translate(299.804688 0)"/>
      <use xlink:href="#DejaVuSans-79" transform="translate(361.083984 0)"/>
     </g>
    </g>
    <g id="line2d_44">
     <path d="M 70.085 107.446406 
L 77.085 107.446406 
L 84.085 107.446406 
" style="fill: none; stroke: #7f7f7f; stroke-width: 1.5; stroke-linecap: square"/>
     <g>
      <use xlink:href="#md6c7ea7f43" x="77.085" y="107.446406" style="fill: #7f7f7f; stroke: #7f7f7f"/>
     </g>
    </g>
    <g id="text_23">
     <!-- siphash13 -->
     <g transform="translate(89.685 109.896406) scale(0.07 -0.07)">
      <use xlink:href="#DejaVuSans-73"/>
      <use xlink:href="#DejaVuSans-69" transform="translate(52.099609 0)"/>
      <use xlink:href="#DejaVuSans-70" transform="translate(79.882812 0)"/>
      <use xlink:href="#DejaVuSans-68" transform="translate(143.359375 0)"/>
      <use xlink:href="#DejaVuSans-61" transform="translate(206.738281 0)"/>
      <use xlink:href="#DejaVuSans-73" transform="translate(268.017578 0)"/>
      <use xlink:href="#DejaVuSans-68" transform="translate(320.117188 0)"/>
      <use xlink:href="#DejaVuSans-31" transform="translate(383.496094 0)"/>
      <use xlink:href="#DejaVuSans-33" transform="translate(447.119141 0)"/>
     </g>
    </g>
    <g id="line2d_45">
     <path d="M 70.085 117.721094 
L 77.085 117.721094 
L 84.085 117.721094 
" style="fill: none; stroke: #bcbd22; stroke-width: 1.5; stroke-linecap: square"/>
     <g>
      <use xlink:href="#m0e606e8961" x="77.085" y="117.721094" style="fill: #bcbd22; stroke: #bcbd22"/>
     </g>
    </g>
    <g id="text_24">
     <!-- siphash24 -->
     <g transform="translate(89.685 120.171094) scale(0.07 -0.07)">
      <use xlink:href="#DejaVuSans-73"/>
      <use xlink:href="#DejaVuSans-69" transform="translate(52.099609 0)"/>
      <use xlink:href="#DejaVuSans-70" transform="translate(79.882812 0)"/>
      <use xlink:href="#DejaVuSans-68" transform="translate(143.359375 0)"/>
      <use xlink:href="#DejaVuSans-61" transform="translate(206.738281 0)"/>
      <use xlink:href="#DejaVuSans-73" transform="translate(268.017578 0)"/>
      <use xlink:href="#DejaVuSans-68" transform="translate(320.117188 0)"/>
      <use xlink:href="#DejaVuSans-32" transform="translate(383.496094 0)"/>
      <use xlink:href="#DejaVuSans-34" transform="translate(447.119141 0)"/>
     </g>
    </g>
    <g id="line2d_46">
     <path d="M 70.085 127.995781 
L 77.085 127.995781 
L 84.085 127.995781 
" style="fill: none; stroke: #17becf; stroke-width: 1.5; stroke-linecap: square"/>
     <g>
      <use xlink:href="#mcedfec6891" x="77.085" y="127.995781" style="fill: #17becf; stroke: #17becf"/>
     </g>
    </g>
    <g id="text_25">
     <!-- wyhash -->
     <g transform="translate(89.685 130.445781) scale(0.07 -0.07)">
      <use xlink:href="#DejaVuSans-77"/>
      <use xlink:href="#DejaVuSans-79" transform="translate(81.787109 0)"/>
      <use xlink:href="#DejaVuSans-68" transform="translate(140.966797 0)"/>
      <use xlink:href="#DejaVuSans-61" transform="translate(204.345703 0)"/>
      <use xlink:href="#DejaVuSans-73" transform="translate(265.625 0)"/>
      <use xlink:href="#DejaVuSans-68" transform="translate(317.724609 0)"/>
     </g>
    </g>
    <g id="line2d_47">
     <path d="M 70.085 138.270469 
L 77.085 138.270469 
L 84.085 138.270469 
" style="fill: none; stroke: #1f77b4; stroke-width: 1.5; stroke-linecap: square"/>
     <g>
      <use xlink:href="#mbcb56c176d" x="77.085" y="138.270469" style="fill: #1f77b4; stroke: #1f77b4"/>
     </g>
    </g>
    <g id="text_26">
     <!-- xxh3 -->
     <g transform="translate(89.685 140.720469) scale(0.07 -0.07)">
      <use xlink:href="#DejaVuSans-78"/>
      <use xlink:href="#DejaVuSans-78" transform="translate(59.179688 0)"/>
      <use xlink:href="#DejaVuSans-68" transform="translate(118.359375 0)"/>
      <use xlink:href="#DejaVuSans-33" transform="translate(181.738281 0)"/>
     </g>
    </g>
    <g id="line2d_48">
     <path d="M 70.085 148.545156 
L 77.085 148.545156 
L 84.085 148.545156 
" style="fill: none; stroke: #ff7f0e; stroke-width: 1.5; stroke-linecap: square"/>
     <g>
      <use xlink:href="#m6867e7616d" x="77.085" y="148.545156" style="fill: #ff7f0e; stroke: #ff7f0e"/>
     </g>
    </g>
    <g id="text_27">
     <!-- xxh3_seeded -->
     <g transform="translate(89.685 150.995156) scale(0.07 -0.07)">
      <use xlink:href="#DejaVuSans-78"/>
      <use xlink:href="#DejaVuSans-78" transform="translate(59.179688 0)"/>
      <use xlink:href="#DejaVuSans-68" transform="translate(118.359375 0)"/>
      <use xlink:href="#DejaVuSans-33" transform="translate(181.738281 0)"/>
      <use xlink:href="#DejaVuSans-5f" transform="translate(245.361328 0)"/>
      <use xlink:href="#DejaVuSans-73" transform="translate(295.361328 0)"/>
      <use xlink:href="#DejaVuSans-65" transform="translate(347.460938 0)"/>
      <use xlink:href="#DejaVuSans-65" transform="translate(408.984375 0)"/>
      <use xlink:href="#DejaVuSans-64" transform="translate(470.507812 0)"/>
      <use xlink:href="#DejaVuSans-65" transform="translate(533.984375 0)"/>
      <use xlink:href="#DejaVuSans-64" transform="translate(595.507812 0)"/>
     </g>
    </g>
   </g>
  </g>
 </g>
 <defs>
  <clipPath id="p5e1aef13d3">
   <rect x="63.785" y="26.16" width="645.415" height="363.88"/>
  </clipPath>
 </defs>
</svg>
